# xmcd
#
# Track frame offsets: 
#        150
#        11129
#        23368
#        37117
#        52061
#        69672
#        87870
#        102385
#        117425
#        130794
#
# Disc length: 1998 seconds
#
# Revision: 0
# Processed by: cddbd v1.5.2PL0 Copyright (c) Steve Scherf et al.
# Submitted via: ExactAudioCopy v1.0b1
#
DISCID=8407cc0a
DTITLE=Bo Diddley - Bo Diddley's Beach Party
DYEAR=2011
DGENRE=Blues
TTITLE0=Memphis
TTITLE1=Gunslinger (aka Bo Diddley's A Gunslinger)
TTITLE2=Hey Bo Diddley
TTITLE3=Old Smokey
TTITLE4=Bo Diddley's Dog
TTITLE5=I'm All Right
TTITLE6=Mr. Custer
TTITLE7=Bo's Waltz
TTITLE8=What's Buggin' You (aka Crackin' Up)
TTITLE9=Road Runner
EXTD=
EXTT0=
EXTT1=
EXTT2=
EXTT3=
EXTT4=
EXTT5=
EXTT6=
EXTT7=
EXTT8=
EXTT9=
PLAYORDER=
